<?xml version="1.0" encoding="UTF-8"?>
<svg xmlns="http://www.w3.org/2000/svg" xmlns:xlink="http://www.w3.org/1999/xlink" width="12px" height="px" viewBox="0 0 12 15" version="1.1">
<g id="surface1">
<path style=" stroke:none;fill-rule:nonzero;fill:rgb(67.843137%,33.72549%,0%);fill-opacity:1;" d="M 0 0 L 0 12.296875 L 5.992188 15 L 12 12.296875 L 12 0 Z M 0 0 "/>
<path style=" stroke:none;fill-rule:nonzero;fill:rgb(100%,100%,100%);fill-opacity:1;" d="M 8.796875 7.003906 C 8.796875 7.460938 8.714844 7.855469 8.546875 8.191406 C 8.394531 8.511719 8.167969 8.792969 7.882812 9.019531 C 7.605469 9.238281 7.285156 9.40625 6.941406 9.507812 C 6.265625 9.714844 5.542969 9.726562 4.859375 9.539062 C 4.558594 9.457031 4.269531 9.332031 4.007812 9.167969 C 3.753906 9.007812 3.53125 8.804688 3.347656 8.570312 C 3.164062 8.332031 3.023438 8.0625 2.941406 7.773438 L 4.59375 7.277344 C 4.671875 7.535156 4.828125 7.761719 5.042969 7.921875 C 5.261719 8.089844 5.523438 8.175781 5.824219 8.175781 C 6.121094 8.183594 6.40625 8.085938 6.628906 7.902344 C 6.859375 7.71875 6.972656 7.449219 6.972656 7.089844 C 6.972656 6.871094 6.925781 6.6875 6.832031 6.542969 C 6.742188 6.398438 6.617188 6.277344 6.46875 6.1875 C 6.316406 6.097656 6.144531 6.035156 5.96875 6.003906 C 5.78125 5.96875 5.59375 5.949219 5.40625 5.949219 C 5.09375 5.953125 4.78125 5.984375 4.472656 6.039062 C 4.152344 6.09375 3.839844 6.171875 3.539062 6.277344 L 3.71875 2.003906 L 8.410156 2.003906 L 8.410156 3.523438 L 5.332031 3.523438 L 5.265625 4.703125 C 5.390625 4.675781 5.519531 4.65625 5.648438 4.644531 C 5.789062 4.636719 5.917969 4.628906 6.03125 4.628906 C 6.398438 4.628906 6.761719 4.675781 7.113281 4.777344 C 7.433594 4.867188 7.734375 5.019531 7.992188 5.226562 C 8.242188 5.429688 8.441406 5.683594 8.578125 5.96875 C 8.726562 6.265625 8.796875 6.609375 8.796875 7.003906 Z M 8.796875 7.003906 "/>
<path style=" stroke:none;fill-rule:nonzero;fill:rgb(100%,100%,100%);fill-opacity:1;" d="M 0 9.933594 L 0 11.101562 L 5.992188 13.804688 L 12 11.101562 L 12 9.933594 L 5.992188 12.636719 Z M 0 9.933594 "/>
</g>
</svg>
