<?xml version="1.0" encoding="UTF-8"?>
<svg xmlns="http://www.w3.org/2000/svg" xmlns:xlink="http://www.w3.org/1999/xlink" width="12px" height="px" viewBox="0 0 12 15" version="1.1">
<g id="surface1">
<path style=" stroke:none;fill-rule:nonzero;fill:rgb(92.54902%,60.392157%,0%);fill-opacity:1;" d="M 0 0 L 0 12.296875 L 5.992188 15 L 12 12.296875 L 12 0 Z M 0 0 "/>
<path style=" stroke:none;fill-rule:nonzero;fill:rgb(100%,100%,100%);fill-opacity:1;" d="M 8.808594 7.304688 C 8.808594 7.710938 8.722656 8.0625 8.554688 8.359375 C 8.390625 8.652344 8.164062 8.902344 7.890625 9.097656 C 7.609375 9.292969 7.296875 9.441406 6.964844 9.53125 C 6.628906 9.625 6.277344 9.671875 5.925781 9.671875 C 5.585938 9.671875 5.246094 9.632812 4.914062 9.554688 C 4.597656 9.484375 4.296875 9.363281 4.019531 9.203125 C 3.746094 9.042969 3.507812 8.835938 3.3125 8.589844 C 3.109375 8.339844 2.957031 8.039062 2.855469 7.6875 L 4.542969 7.257812 C 4.613281 7.503906 4.761719 7.71875 4.984375 7.90625 C 5.207031 8.089844 5.492188 8.183594 5.839844 8.183594 C 5.972656 8.183594 6.105469 8.164062 6.230469 8.132812 C 6.359375 8.097656 6.480469 8.042969 6.589844 7.96875 C 6.695312 7.890625 6.785156 7.792969 6.847656 7.679688 C 6.917969 7.558594 6.949219 7.410156 6.949219 7.234375 C 6.949219 7.046875 6.90625 6.886719 6.816406 6.761719 C 6.722656 6.632812 6.601562 6.53125 6.460938 6.460938 C 6.300781 6.382812 6.132812 6.328125 5.957031 6.300781 C 5.769531 6.269531 5.582031 6.253906 5.394531 6.253906 L 4.910156 6.253906 L 4.910156 4.96875 L 5.4375 4.96875 C 5.605469 4.96875 5.769531 4.957031 5.933594 4.929688 C 6.085938 4.910156 6.230469 4.863281 6.363281 4.792969 C 6.484375 4.730469 6.589844 4.636719 6.664062 4.523438 C 6.738281 4.410156 6.777344 4.261719 6.777344 4.078125 C 6.777344 3.808594 6.679688 3.601562 6.484375 3.460938 C 6.292969 3.320312 6.058594 3.246094 5.816406 3.25 C 5.570312 3.246094 5.332031 3.324219 5.140625 3.476562 C 4.949219 3.628906 4.816406 3.84375 4.769531 4.082031 L 3.085938 3.703125 C 3.171875 3.402344 3.3125 3.121094 3.503906 2.875 C 3.691406 2.640625 3.914062 2.441406 4.171875 2.285156 C 4.429688 2.125 4.710938 2.003906 5.007812 1.925781 C 5.308594 1.847656 5.621094 1.804688 5.9375 1.804688 C 6.269531 1.804688 6.601562 1.847656 6.925781 1.933594 C 7.234375 2.011719 7.523438 2.144531 7.78125 2.320312 C 8.03125 2.496094 8.242188 2.722656 8.390625 2.980469 C 8.546875 3.246094 8.625 3.558594 8.625 3.917969 C 8.625 4.332031 8.503906 4.683594 8.261719 4.96875 C 8.023438 5.25 7.703125 5.453125 7.339844 5.542969 L 7.339844 5.574219 C 7.550781 5.621094 7.75 5.703125 7.933594 5.8125 C 8.109375 5.917969 8.265625 6.046875 8.398438 6.203125 C 8.527344 6.351562 8.628906 6.523438 8.699219 6.707031 C 8.773438 6.898438 8.808594 7.101562 8.808594 7.304688 Z M 8.808594 7.304688 "/>
<path style=" stroke:none;fill-rule:nonzero;fill:rgb(100%,100%,100%);fill-opacity:1;" d="M 0 9.933594 L 0 11.101562 L 5.992188 13.804688 L 12 11.101562 L 12 9.933594 L 5.992188 12.636719 Z M 0 9.933594 "/>
</g>
</svg>
