<?xml version="1.0" encoding="UTF-8"?>
<svg xmlns="http://www.w3.org/2000/svg" xmlns:xlink="http://www.w3.org/1999/xlink" width="12px" height="px" viewBox="0 0 12 15" version="1.1">
<g id="surface1">
<path style=" stroke:none;fill-rule:nonzero;fill:rgb(15.294118%,88.627451%,64.313725%);fill-opacity:1;" d="M 0 0 L 0 12.296875 L 5.992188 15 L 12 12.296875 L 12 0 Z M 0 0 "/>
<path style=" stroke:none;fill-rule:nonzero;fill:rgb(100%,100%,100%);fill-opacity:1;" d="M 0 9.933594 L 0 11.101562 L 5.992188 13.804688 L 12 11.101562 L 12 9.933594 L 5.992188 12.636719 Z M 0 9.933594 "/>
<path style=" stroke:none;fill-rule:nonzero;fill:rgb(100%,100%,100%);fill-opacity:1;" d="M 3.246094 9.472656 L 3.246094 8 L 6.226562 5.367188 C 6.402344 5.207031 6.554688 5.027344 6.679688 4.828125 C 6.796875 4.644531 6.855469 4.433594 6.851562 4.21875 C 6.851562 3.953125 6.765625 3.734375 6.59375 3.570312 C 6.421875 3.40625 6.191406 3.324219 5.902344 3.324219 C 5.601562 3.324219 5.355469 3.425781 5.164062 3.636719 C 4.972656 3.84375 4.859375 4.113281 4.824219 4.453125 L 3.082031 4.222656 C 3.117188 3.867188 3.226562 3.519531 3.402344 3.207031 C 3.566406 2.917969 3.78125 2.660156 4.042969 2.449219 C 4.308594 2.238281 4.609375 2.074219 4.933594 1.96875 C 5.277344 1.859375 5.636719 1.804688 6 1.804688 C 6.347656 1.804688 6.691406 1.851562 7.027344 1.941406 C 7.34375 2.027344 7.644531 2.171875 7.910156 2.363281 C 8.171875 2.554688 8.382812 2.800781 8.53125 3.082031 C 8.6875 3.367188 8.765625 3.707031 8.765625 4.09375 C 8.769531 4.339844 8.730469 4.582031 8.65625 4.816406 C 8.585938 5.027344 8.488281 5.226562 8.359375 5.410156 C 8.234375 5.59375 8.089844 5.765625 7.929688 5.921875 C 7.765625 6.082031 7.597656 6.238281 7.425781 6.390625 L 5.65625 7.929688 L 8.777344 7.929688 L 8.777344 9.472656 Z M 3.246094 9.472656 "/>
</g>
</svg>
